<?xml version="1.0" encoding="UTF-8"?>
<svg width="978px" height="978px" viewBox="0 0 978 978" version="1.1" xmlns="http://www.w3.org/2000/svg" xmlns:xlink="http://www.w3.org/1999/xlink">
    <title>bigstick</title>
    <g id="Page-1" stroke="none" stroke-width="1" fill="none" fill-rule="evenodd">
        <g id="Games" transform="translate(-523, -412)">
            <g id="bigstick" transform="translate(523, 412)">
                <path d="M681.23746,112.219855 C715.600266,115.027407 739.592886,120.677588 760.117114,131.135205 C797.46729,150.16607 827.83393,180.53271 846.864795,217.882886 C857.322412,238.407114 862.972593,262.399734 865.780145,296.76254 C868.091527,325.052519 868.5,351.040964 868.5,428 L868.5,550 C868.5,626.959036 868.091527,652.947481 865.780145,681.23746 C862.972593,715.600266 857.322412,739.592886 846.864795,760.117114 C827.83393,797.46729 797.46729,827.83393 760.117114,846.864795 C739.592886,857.322412 715.600266,862.972593 681.23746,865.780145 C652.947481,868.091527 626.959036,868.5 550,868.5 L428,868.5 C351.040964,868.5 325.052519,868.091527 296.76254,865.780145 C262.399734,862.972593 238.407114,857.322412 217.882886,846.864795 C180.53271,827.83393 150.16607,797.46729 131.135205,760.117114 C120.677588,739.592886 115.027407,715.600266 112.219855,681.23746 C109.908473,652.947481 109.5,626.959036 109.5,550 L109.5,428 C109.5,351.040964 109.908473,325.052519 112.219855,296.76254 C115.027407,262.399734 120.677588,238.407114 131.135205,217.882886 C150.16607,180.53271 180.53271,150.16607 217.882886,131.135205 C238.407114,120.677588 262.399734,115.027407 296.76254,112.219855 C325.052519,109.908473 351.040964,109.5 428,109.5 L550,109.5 C626.959036,109.5 652.947481,109.908473 681.23746,112.219855 Z" id="Rectangle" stroke="#979797" stroke-width="3" fill="#C3C7CA" transform="translate(489, 489) rotate(-20) translate(-489, -489)"></path>
                <circle id="Oval" fill="#E72325" cx="489" cy="489" r="140"></circle>
                <path d="M599.5,109 C644.511207,109 681,145.488793 681,190.5 C681,235.511207 644.511207,272 599.5,272 C554.488793,272 518,235.511207 518,190.5 C518,145.488793 554.488793,109 599.5,109 Z" id="Rectangle-2" fill="#E72325" transform="translate(599.5, 190.5) rotate(-20) translate(-599.5, -190.5)"></path>
                <text id="A" transform="translate(599, 190.5) rotate(-20) translate(-599, -190.5)" font-family="SFCompact-Regular, SF Compact" font-size="83" font-weight="normal" fill="#A11718">
                    <tspan x="575.57466" y="187">A</tspan>
                </text>
            </g>
        </g>
    </g>
</svg>