<?xml version="1.0" encoding="UTF-8"?>
<svg width="241px" height="241px" viewBox="0 0 241 241" version="1.1" xmlns="http://www.w3.org/2000/svg" xmlns:xlink="http://www.w3.org/1999/xlink">
    <title>GithubApp</title>
    <g id="Page-1" stroke="none" stroke-width="1" fill="none" fill-rule="evenodd">
        <g id="Homescreen" transform="translate(-28, -40)">
            <g id="GithubApp" transform="translate(28, 40)">
                <path d="M83.2,0 L157.8,0 C186.92273,0 201.484095,0 212.607506,5.66766074 C222.391935,10.6530762 230.346924,18.6080652 235.332339,28.392494 C241,39.5159045 241,54.0772697 241,83.2 L241,157.8 C241,186.92273 241,201.484095 235.332339,212.607506 C230.346924,222.391935 222.391935,230.346924 212.607506,235.332339 C201.484095,241 186.92273,241 157.8,241 L83.2,241 C54.0772697,241 39.5159045,241 28.392494,235.332339 C18.6080652,230.346924 10.6530762,222.391935 5.66766074,212.607506 C0,201.484095 0,186.92273 0,157.8 L0,83.2 C0,54.0772697 0,39.5159045 5.66766074,28.392494 C10.6530762,18.6080652 18.6080652,10.6530762 28.392494,5.66766074 C39.5159045,0 54.0772697,0 83.2,0 Z" id="Rectangle" fill="#6FCD91"></path>
                <path d="M120,43 C164.18278,43 200,78.81722 200,123 C200,154.511634 181.780869,181.767962 155.301758,194.809835 C154.448354,170.306655 146.714868,149.546706 135.891671,140.016942 C153.731362,135.36642 166.493997,122.944483 166.493997,108.351472 C166.493997,99.5217134 161.821509,91.4867997 154.179148,85.4868064 L153.051981,67.3636337 C152.812019,63.5019509 148.263823,61.5743941 145.322113,64.0876625 L131.673325,75.7475842 C128.042256,75.0791392 124.239913,74.7240157 120.323688,74.7240157 C116.413218,74.7240157 112.616294,75.0780964 108.990059,75.7446396 L95.3457052,64.0876625 C92.4039952,61.5743941 87.8557992,63.5019509 87.6158375,67.3636337 L86.4882443,85.4711015 C78.8340268,91.4727753 74.1533792,99.5140072 74.1533792,108.351472 C74.1533792,123.894913 88.6325878,136.975269 108.303231,140.82793 C103.343996,145.548972 99.0771299,152.661145 95.8854157,161.407334 C82.6097125,164.014759 74.7061027,161.818277 71.9474531,154.986281 C69.8191044,149.715271 65.6586945,146.409155 61.6733918,145.859464 C59.8996862,145.614817 58.4384412,146.022483 57.9094305,147.111642 C57.3294827,148.305673 58.0859653,149.741589 59.8970786,151.186552 C62.0715775,152.921435 63.1842999,154.101038 63.9693605,155.389429 C64.1629986,155.707215 64.3434735,156.039025 64.5630134,156.473669 C64.6226233,156.591684 65.1416899,157.644009 65.3221383,157.99602 C65.6628612,158.660688 66.0013017,159.271819 66.4000552,159.928155 C67.4122499,161.594199 68.7510638,163.437959 70.6225898,165.676025 C75.1249822,171.060213 83.1078552,171.517308 92.8314946,169.491984 C92.9678629,169.591526 93.1314986,169.648204 93.3205437,169.667464 C91.1705073,177.926537 89.8893884,187.219045 89.7189292,197.068679 C60.5489681,185.13227 40,156.465869 40,123 C40,78.81722 75.81722,43 120,43 Z" id="GitHub-2-Copy" fill="#1F2329"></path>
            </g>
        </g>
    </g>
</svg>